<svg viewBox="0 0 13.4999 13.5" fill="none" xmlns="http://www.w3.org/2000/svg" xmlns:xlink="http://www.w3.org/1999/xlink" x="0" y="0"><path id="Vector_8" d="M1.223,2.35h10.143c0.919,0 1.582,0.85 1.33,1.7l-1.103,3.73c-0.17,0.58 -0.712,0.97 -1.33,0.97h-6.105c-0.618,0 -1.161,-0.4 -1.331,-0.97zM1.223,2.35l-0.473,-1.6M5.75,5.42h2.667M9.75,12.75c0.265,0 0.52,-0.11 0.707,-0.29c0.188,-0.19 0.293,-0.44 0.293,-0.71c0,-0.27 -0.105,-0.52 -0.293,-0.71c-0.187,-0.18 -0.442,-0.29 -0.707,-0.29c-0.265,0 -0.52,0.11 -0.707,0.29c-0.188,0.19 -0.293,0.44 -0.293,0.71c0,0.27 0.105,0.52 0.293,0.71c0.187,0.18 0.442,0.29 0.707,0.29zM4.417,12.75c0.265,0 0.519,-0.11 0.707,-0.29c0.187,-0.19 0.293,-0.44 0.293,-0.71c0,-0.27 -0.106,-0.52 -0.293,-0.71c-0.188,-0.18 -0.442,-0.29 -0.707,-0.29c-0.266,0 -0.52,0.11 -0.707,0.29c-0.188,0.19 -0.293,0.44 -0.293,0.71c0,0.27 0.105,0.52 0.293,0.71c0.187,0.18 0.441,0.29 0.707,0.29z" stroke="#006837" stroke-width="1.5" stroke-linecap="round" stroke-linejoin="round"/></svg>