<svg viewBox="0 0 16 14" fill="none" xmlns="http://www.w3.org/2000/svg" xmlns:xlink="http://www.w3.org/1999/xlink" x="0" y="0"><g id="Group">
<path id="Vector" d="M12,14c1.105,0 2,-0.895 2,-2c0,-1.105 -0.895,-2 -2,-2c-1.105,0 -2,0.895 -2,2c0,1.105 0.895,2 2,2z" stroke="#E6E6E6" stroke-width="2"/>
<path id="Vector_2" d="M5,14c1.105,0 2,-0.895 2,-2c0,-1.105 -0.895,-2 -2,-2c-1.105,0 -2,0.895 -2,2c0,1.105 0.895,2 2,2z" stroke="#E6E6E6" stroke-width="2"/>
<path id="Vector_3" d="M1,7h6v-7M7,0v2h-7v8c0,0.53 0.211,1.039 0.586,1.414c0.375,0.375 0.884,0.586 1.414,0.586h1M7,0h4l4.625,3.7c0.117,0.094 0.211,0.212 0.276,0.347c0.065,0.135 0.099,0.283 0.099,0.433v1.52M16,6h-4v-4h1M16,6v4c0,0.53 -0.211,1.039 -0.586,1.414c-0.375,0.375 -0.884,0.586 -1.414,0.586M10,12h-3" stroke="#E6E6E6" stroke-width="2" stroke-linecap="round" stroke-linejoin="round"/>
</g></svg>