<svg viewBox="0 0 24 24" fill="none" xmlns="http://www.w3.org/2000/svg" x="0" y="0"><defs><clipPath id="clip0_0_640">
<rect width="24" height="24" fill="white" transform="translate(0, 0)"/>
</clipPath></defs><g id="logos:facebook" clip-path="url(#clip0_0_640)">
<path id="Vector" d="M24,12c0,-6.627 -5.373,-12 -12,-12c-6.627,0 -12,5.373 -12,12c0,5.99 4.388,10.954 10.125,11.854v-8.385h-3.047v-3.469h3.047v-2.644c0,-3.007 1.792,-4.668 4.533,-4.668c1.313,0 2.686,0.234 2.686,0.234v2.953h-1.513c-1.491,0 -1.956,0.925 -1.956,1.874v2.251h3.328l-0.532,3.469h-2.796v8.385c5.737,-0.9 10.125,-5.864 10.125,-11.854z" fill="currentColor"/>
<path id="Vector_2" d="M16.671,15.469l0.532,-3.469h-3.328v-2.251c0,-0.949 0.465,-1.874 1.956,-1.874h1.513v-2.953c0,0 -1.374,-0.234 -2.686,-0.234c-2.741,0 -4.533,1.661 -4.533,4.668v2.644h-3.047v3.469h3.047v8.385c0.62,0.097 1.247,0.146 1.875,0.146c0.628,0 1.255,-0.049 1.875,-0.146v-8.385z" fill="white"/>
</g></svg>