<svg viewBox="0 0 20.2683 20.9912" fill="none" xmlns="http://www.w3.org/2000/svg" x="0" y="0"><g id="Group">
<path id="Vector_3" opacity="0.987" fill-rule="evenodd" clip-rule="evenodd" d="M8.939,0.0915c1.088,-0.122 1.731,-0.122 2.9,0c2.068,0.306 3.986,1.262 5.475,2.73c-1.006,0.951 -2,1.916 -2.979,2.895c-1.876,-1.59 -3.97,-1.957 -6.282,-1.101c-1.696,0.78 -2.877,2.044 -3.543,3.792c-1.088,-0.811 -2.163,-1.64 -3.222,-2.487c-0.074,-0.039 -0.158,-0.053 -0.24,-0.041c1.683,-3.245 4.313,-5.175 7.89,-5.79" fill="#F44336"/>
<path id="Vector_4" opacity="0.997" fill-rule="evenodd" clip-rule="evenodd" d="M1.044,5.8795c0.085,-0.013 0.166,0.001 0.242,0.041c1.059,0.847 2.134,1.676 3.222,2.487c-0.171,0.681 -0.279,1.376 -0.323,2.077c0.037,0.678 0.145,1.344 0.323,1.997l-3.383,2.692c-1.473,-3.078 -1.5,-6.176 -0.081,-9.294z" fill="#FFC107"/>
<path id="Vector_5" opacity="0.999" fill-rule="evenodd" clip-rule="evenodd" d="M17.153,18.4345c-1.053,-0.929 -2.156,-1.8 -3.303,-2.61c1.15,-0.812 1.848,-1.926 2.094,-3.342h-5.635v-3.913c3.25,-0.027 6.498,0 9.745,0.082c0.616,3.345 -0.095,6.361 -2.134,9.048c-0.243,0.258 -0.5,0.503 -0.767,0.735z" fill="#448AFF"/>
<path id="Vector_6" opacity="0.993" fill-rule="evenodd" clip-rule="evenodd" d="M4.508,12.4825c1.23,3.057 3.485,4.484 6.765,4.281c0.92,-0.106 1.803,-0.428 2.576,-0.939c1.148,0.812 2.25,1.682 3.304,2.61c-1.671,1.501 -3.8,2.391 -6.041,2.526c-0.509,0.041 -1.021,0.041 -1.53,0c-3.818,-0.45 -6.637,-2.379 -8.457,-5.787z" fill="#43A047"/>
</g></svg>