<svg viewBox="0 0 16.383 16.385" fill="none" xmlns="http://www.w3.org/2000/svg" xmlns:xlink="http://www.w3.org/1999/xlink" x="0" y="0"><path id="Vector_11" d="M15.672,16.385l-6.26,-6.262c-0.5,0.426 -1.07,0.7557 -1.72,0.989c-0.65,0.2333 -1.31,0.35 -1.96,0.35c-1.6,0 -2.96,-0.5543 -4.07,-1.663c-1.11,-1.1087 -1.66,-2.4637 -1.66,-4.065c0,-1.6013 0.55,-2.957 1.66,-4.067c1.11,-1.11 2.46,-1.6657 4.06,-1.667c1.61,-0.0013 2.96,0.5533 4.07,1.664c1.11,1.1107 1.67,2.4663 1.67,4.067c0,0.6947 -0.13,1.367 -0.37,2.017c-0.25,0.65 -0.57,1.206 -0.97,1.668l6.26,6.261zM5.732,10.461c1.33,0 2.45,-0.4567 3.36,-1.37c0.91,-0.9133 1.37,-2.0337 1.37,-3.361c0,-1.3273 -0.46,-2.4473 -1.37,-3.36c-0.91,-0.9127 -2.03,-1.3693 -3.36,-1.37c-1.33,-0.0007 -2.45,0.456 -3.36,1.37c-0.92,0.914 -1.37,2.034 -1.37,3.36c0,1.326 0.46,2.446 1.37,3.36c0.91,0.914 2.03,1.3707 3.36,1.37" fill="currentColor"/></svg>