<svg viewBox="0 0 19.4998 19.5" fill="none" xmlns="http://www.w3.org/2000/svg" xmlns:xlink="http://www.w3.org/1999/xlink" x="0" y="0"><path id="Vector_10" d="M1.46,3.15h15.21c1.38,0 2.38,1.27 2,2.548l-1.66,5.6c-0.25,0.86 -1.06,1.452 -1.99,1.452h-9.16c-0.92,0 -1.74,-0.593 -1.99,-1.452zM1.46,3.15l-0.71,-2.4M8.25,7.75h4M14.25,18.75c0.4,0 0.78,-0.158 1.06,-0.4393c0.28,-0.2813 0.44,-0.6629 0.44,-1.0607c0,-0.3978 -0.16,-0.7794 -0.44,-1.0607c-0.28,-0.2813 -0.66,-0.4393 -1.06,-0.4393c-0.4,0 -0.78,0.158 -1.06,0.4393c-0.28,0.2813 -0.44,0.6629 -0.44,1.0607c0,0.3978 0.16,0.7794 0.44,1.0607c0.28,0.2813 0.66,0.4393 1.06,0.4393zM6.25,18.75c0.4,0 0.78,-0.158 1.06,-0.4393c0.28,-0.2813 0.44,-0.6629 0.44,-1.0607c0,-0.3978 -0.16,-0.7794 -0.44,-1.0607c-0.28,-0.2813 -0.66,-0.4393 -1.06,-0.4393c-0.4,0 -0.78,0.158 -1.06,0.4393c-0.28,0.2813 -0.44,0.6629 -0.44,1.0607c0,0.3978 0.16,0.7794 0.44,1.0607c0.28,0.2813 0.66,0.4393 1.06,0.4393z" stroke="#006837" stroke-width="1.5" stroke-linecap="round" stroke-linejoin="round"/></svg>